# xmcd CD database file
#
# Track frame offsets:
#	150
#	20240
#	39145
#	58207
#	78592
#	101470
#	126267
#	152662
#	172025
#	194490
#
# Disc length: 2869 seconds
#
# Revision: 0
# Processed by: cddbd v1.5PL3 Copyright (c) Steve Scherf et al.
# Submitted via: CDex 1.50Beta7
#
DISCID=850b330a
DTITLE=Laputa - 麝香
DYEAR=1998
DGENRE=Rock
TTITLE0=麝香
TTITLE1=ケミカルリアクション
TTITLE2=ロゼ
TTITLE3=揺れながら・・・
TTITLE4=裂かれて二枚
TTITLE5=カナリヤ
TTITLE6=meet again
TTITLE7=白昼夢
TTITLE8=ナイフ
TTITLE9=クラッシュボウイ
EXTD=YEAR: 1998
EXTT0=
EXTT1=
EXTT2=
EXTT3=
EXTT4=
EXTT5=
EXTT6=
EXTT7=
EXTT8=
EXTT9=
PLAYORDER=
